<?xml version="1.0" standalone="no"?>
<!DOCTYPE svg PUBLIC "-//W3C//DTD SVG 20010904//EN"
 "http://www.w3.org/TR/2001/REC-SVG-20010904/DTD/svg10.dtd">
<svg version="1.0" xmlns="http://www.w3.org/2000/svg"
 width="260.000000pt" height="260.000000pt" viewBox="0 0 260.000000 260.000000"
 preserveAspectRatio="xMidYMid meet">
<metadata>
Created by potrace 1.11, written by Peter Selinger 2001-2013
</metadata>
<g transform="translate(0.000000,260.000000) scale(0.100000,-0.100000)"
fill="#000000" stroke="none">
<path d="M1095 2255 c-289 -54 -540 -243 -651 -491 -129 -290 -125 -670 9
-939 126 -252 344 -414 642 -476 78 -16 323 -16 400 0 206 43 361 126 486 257
129 137 204 294 239 499 18 108 14 334 -9 440 -81 387 -342 642 -726 711 -97
17 -294 17 -390 -1z m417 -228 c258 -83 420 -281 463 -564 45 -296 -25 -555
-194 -724 -75 -74 -146 -118 -253 -155 -97 -34 -286 -44 -398 -20 -87 18 -219
80 -282 132 -122 102 -211 263 -239 433 -13 86 -13 274 1 351 54 298 243 501
526 564 103 23 276 16 376 -17z"/>
<path d="M990 1301 l0 -471 50 0 50 0 0 195 0 195 74 0 74 0 128 -195 127
-195 54 0 54 0 -126 187 c-70 104 -127 192 -128 197 -1 5 16 13 37 18 60 13
133 57 160 97 37 55 49 106 44 185 -8 114 -54 183 -153 228 -45 20 -68 23
-247 26 l-198 4 0 -471z m400 367 c101 -43 141 -194 79 -294 -38 -61 -84 -77
-241 -82 l-138 -4 0 202 0 203 133 -5 c86 -3 144 -10 167 -20z"/>
</g>
</svg>
